<svg width="705" height="214" viewBox="0 0 705 214" fill="none" xmlns="http://www.w3.org/2000/svg">
<path d="M80.6466 122.785L130.864 80.755C130.904 107.875 168.536 116.603 146.256 130.179L80.6466 122.785Z" fill="#71029D"/>
<path d="M83.7984 125.249L153.452 135.595C129.202 147.445 155.544 169.748 125.562 178.677L83.7984 125.249Z" fill="#AF71C8"/>
<path d="M82.6859 127.046L125.32 185.336C100.062 176.047 103.79 211.189 76.4182 195.63L82.6859 127.046Z" fill="#71029D"/>
<path d="M80.2575 130.423L69.8454 202.89C58.6337 177.554 37.0384 204.835 28.6708 173.549L80.2575 130.423Z" fill="#AF71C8"/>
<path d="M77.6795 132.097L20.7016 172.42C30.7937 143.254 -5.11611 141.863 9.50707 121.786L77.6795 132.097Z" fill="#71029D"/>
<path d="M72.3406 130.235L4.75741 116.339C31.7762 103.327 7.49671 75.7367 31.4888 72.4679L72.3406 130.235Z" fill="#AF71C8"/>
<path d="M73.3437 128.068L35.1464 68.3636C63.0584 79.139 64.7207 41.7548 83.8647 57.1662L73.3437 128.068Z" fill="#71029D"/>
<path d="M76.4765 122.628L86.9796 51.7234C100.594 79.2931 126.046 52.8747 130.186 77.7027L76.4765 122.628Z" fill="#AF71C8"/>
<path d="M199.006 171.171V189.155H202.298V201.707H196.784V193.641H181.68V201.707H176.166V189.155H178.059C179.047 187.646 179.883 185.932 180.569 184.011C181.255 182.063 181.804 179.992 182.215 177.797C182.627 175.602 182.929 173.393 183.121 171.171H199.006ZM188.265 175.78C188.045 177.426 187.771 179.031 187.442 180.595C187.113 182.132 186.701 183.613 186.207 185.04C185.741 186.467 185.165 187.838 184.479 189.155H192.874V175.78H188.265ZM215.388 170.76C217.473 170.76 219.256 171.157 220.738 171.953C222.247 172.749 223.413 173.901 224.236 175.41C225.059 176.919 225.471 178.771 225.471 180.966V183.929H210.984C211.039 185.657 211.547 187.015 212.507 188.003C213.495 188.991 214.853 189.485 216.581 189.485C218.036 189.485 219.352 189.347 220.532 189.073C221.712 188.771 222.933 188.319 224.195 187.715V192.448C223.097 192.996 221.931 193.394 220.697 193.641C219.49 193.915 218.022 194.053 216.293 194.053C214.044 194.053 212.054 193.641 210.326 192.818C208.598 191.968 207.239 190.692 206.252 188.991C205.264 187.29 204.77 185.15 204.77 182.571C204.77 179.937 205.209 177.756 206.087 176.027C206.993 174.271 208.241 172.954 209.832 172.076C211.423 171.199 213.275 170.76 215.388 170.76ZM215.429 175.122C214.249 175.122 213.262 175.506 212.466 176.274C211.698 177.042 211.245 178.236 211.108 179.855H219.709C219.709 178.949 219.544 178.14 219.215 177.426C218.913 176.713 218.447 176.151 217.816 175.739C217.185 175.328 216.389 175.122 215.429 175.122ZM249.044 175.78H241.678V193.641H235.546V175.78H228.179V171.171H249.044V175.78ZM261.924 194.053C259.702 194.053 257.809 193.655 256.245 192.859C254.681 192.036 253.488 190.774 252.665 189.073C251.842 187.372 251.43 185.191 251.43 182.53C251.43 179.786 251.896 177.55 252.829 175.821C253.762 174.093 255.052 172.817 256.698 171.994C258.371 171.171 260.292 170.76 262.459 170.76C263.996 170.76 265.326 170.91 266.451 171.212C267.603 171.514 268.605 171.871 269.455 172.282L267.645 177.015C266.684 176.631 265.779 176.315 264.928 176.068C264.105 175.821 263.282 175.698 262.459 175.698C261.389 175.698 260.498 175.959 259.784 176.48C259.071 176.974 258.536 177.728 258.179 178.743C257.85 179.731 257.685 180.979 257.685 182.488C257.685 183.97 257.864 185.205 258.22 186.192C258.605 187.153 259.153 187.88 259.867 188.373C260.58 188.84 261.444 189.073 262.459 189.073C263.749 189.073 264.887 188.908 265.875 188.579C266.863 188.223 267.823 187.742 268.756 187.139V192.365C267.823 192.969 266.835 193.394 265.793 193.641C264.778 193.915 263.488 194.053 261.924 194.053ZM288.661 171.171H295.41L286.521 181.953L296.192 193.641H289.237L280.06 182.241V193.641H273.928V171.171H280.06V182.077L288.661 171.171ZM305.334 180.06C305.334 180.527 305.306 181.103 305.252 181.789C305.224 182.475 305.183 183.174 305.128 183.888C305.101 184.601 305.059 185.232 305.005 185.781C304.95 186.329 304.909 186.714 304.881 186.933L315.252 171.171H322.618V193.641H316.692V184.67C316.692 183.929 316.72 183.119 316.775 182.241C316.829 181.336 316.884 180.499 316.939 179.731C317.022 178.935 317.076 178.332 317.104 177.92L306.774 193.641H299.408V171.171H305.334V180.06ZM350.551 161.5C350.413 162.927 350.016 164.189 349.357 165.286C348.699 166.356 347.67 167.193 346.271 167.796C344.871 168.4 342.992 168.702 340.633 168.702C338.218 168.702 336.325 168.414 334.953 167.838C333.609 167.234 332.649 166.397 332.073 165.327C331.496 164.257 331.153 162.981 331.044 161.5H336.517C336.654 163.009 337.038 164.01 337.67 164.504C338.301 164.998 339.329 165.245 340.756 165.245C341.936 165.245 342.896 164.984 343.637 164.463C344.405 163.914 344.858 162.927 344.995 161.5H350.551ZM334.953 180.06C334.953 180.527 334.926 181.103 334.871 181.789C334.844 182.475 334.802 183.174 334.748 183.888C334.72 184.601 334.679 185.232 334.624 185.781C334.569 186.329 334.528 186.714 334.501 186.933L344.871 171.171H352.238V193.641H346.312V184.67C346.312 183.929 346.339 183.119 346.394 182.241C346.449 181.336 346.504 180.499 346.559 179.731C346.641 178.935 346.696 178.332 346.723 177.92L336.394 193.641H329.027V171.171H334.953V180.06ZM391.695 201.707H386.18V193.641H367.167V171.171H373.299V189.032H382.27V171.171H388.402V189.155H391.695V201.707ZM404.76 170.76C406.845 170.76 408.628 171.157 410.11 171.953C411.619 172.749 412.785 173.901 413.608 175.41C414.431 176.919 414.843 178.771 414.843 180.966V183.929H400.356C400.411 185.657 400.919 187.015 401.879 188.003C402.867 188.991 404.225 189.485 405.953 189.485C407.408 189.485 408.724 189.347 409.904 189.073C411.084 188.771 412.305 188.319 413.567 187.715V192.448C412.469 192.996 411.303 193.394 410.069 193.641C408.862 193.915 407.394 194.053 405.665 194.053C403.416 194.053 401.426 193.641 399.698 192.818C397.97 191.968 396.611 190.692 395.624 188.991C394.636 187.29 394.142 185.15 394.142 182.571C394.142 179.937 394.581 177.756 395.459 176.027C396.365 174.271 397.613 172.954 399.204 172.076C400.795 171.199 402.647 170.76 404.76 170.76ZM404.801 175.122C403.621 175.122 402.634 175.506 401.838 176.274C401.07 177.042 400.617 178.236 400.48 179.855H409.081C409.081 178.949 408.916 178.14 408.587 177.426C408.285 176.713 407.819 176.151 407.188 175.739C406.557 175.328 405.761 175.122 404.801 175.122ZM425.947 171.171V179.813H434.507V171.171H440.639V193.641H434.507V184.381H425.947V193.641H419.815V171.171H425.947ZM465.665 175.78H458.298V193.641H452.166V175.78H444.8V171.171H465.665V175.78ZM482.321 170.76C484.845 170.76 486.889 171.747 488.453 173.723C490.017 175.671 490.799 178.551 490.799 182.365C490.799 184.916 490.428 187.07 489.688 188.826C488.947 190.555 487.932 191.858 486.642 192.736C485.353 193.614 483.858 194.053 482.156 194.053C481.086 194.053 480.154 193.915 479.358 193.641C478.59 193.367 477.931 193.01 477.383 192.571C476.834 192.132 476.354 191.666 475.942 191.172H475.613C475.723 191.693 475.805 192.242 475.86 192.818C475.915 193.367 475.942 193.915 475.942 194.464V203.518H469.81V171.171H474.79L475.654 174.093H475.942C476.354 173.489 476.848 172.941 477.424 172.447C478 171.926 478.686 171.514 479.481 171.212C480.305 170.91 481.251 170.76 482.321 170.76ZM480.346 175.657C479.276 175.657 478.425 175.876 477.794 176.315C477.163 176.754 476.697 177.426 476.395 178.332C476.121 179.21 475.97 180.321 475.942 181.665V182.324C475.942 183.778 476.079 185.013 476.354 186.028C476.628 187.015 477.095 187.77 477.753 188.291C478.411 188.812 479.303 189.073 480.428 189.073C481.361 189.073 482.129 188.812 482.733 188.291C483.336 187.77 483.789 187.002 484.091 185.986C484.393 184.971 484.543 183.737 484.543 182.283C484.543 180.088 484.2 178.442 483.515 177.344C482.856 176.219 481.8 175.657 480.346 175.657Z" fill="#AF71C8"/>
<path d="M182.119 66.8277C179.705 64.7426 178.498 61.8344 178.498 58.1031C178.498 54.3718 179.705 51.5185 182.119 49.5431C184.644 47.4579 187.716 46.4154 191.338 46.4154C194.959 46.4154 197.977 47.4579 200.392 49.5431C202.916 51.5185 204.178 54.3718 204.178 58.1031C204.178 61.8344 202.916 64.7426 200.392 66.8277C197.977 68.8031 194.959 69.7908 191.338 69.7908C187.716 69.7908 184.644 68.8031 182.119 66.8277ZM202.696 160H180.144V81.1492H202.696V160ZM260.775 81.1492V91.8492C269.554 83.7282 278.498 79.6677 287.607 79.6677C296.277 79.6677 302.642 82.1369 306.702 87.0754C310.873 91.9041 312.958 99.5862 312.958 110.122V160H290.406V116.212C290.406 110.286 289.692 106.226 288.266 104.031C286.949 101.726 284.095 100.574 279.706 100.574C273.011 100.574 266.701 104.141 260.775 111.274V160H238.222V81.1492H260.775ZM398.839 160V150.617C394.889 154.458 391.212 157.256 387.81 159.012C384.408 160.658 379.799 161.482 373.983 161.482C364.874 161.482 357.247 158.079 351.101 151.275C345.065 144.362 342.047 133.936 342.047 119.998C342.047 106.171 344.681 96.0195 349.949 89.5446C355.326 82.96 362.789 79.6677 372.336 79.6677C382.762 79.6677 391.596 83.3441 398.839 90.6969V53.3292H421.392V160H398.839ZM398.839 132.838V108.805C393.462 101.891 387.262 98.4338 380.238 98.4338C369.593 98.4338 364.27 105.622 364.27 119.998C364.27 127.9 365.807 133.716 368.879 137.448C371.952 141.179 376.068 143.045 381.226 143.045C387.81 143.045 393.682 139.643 398.839 132.838ZM458.493 66.8277C456.079 64.7426 454.872 61.8344 454.872 58.1031C454.872 54.3718 456.079 51.5185 458.493 49.5431C461.017 47.4579 464.09 46.4154 467.712 46.4154C471.333 46.4154 474.351 47.4579 476.766 49.5431C479.29 51.5185 480.552 54.3718 480.552 58.1031C480.552 61.8344 479.29 64.7426 476.766 66.8277C474.351 68.8031 471.333 69.7908 467.712 69.7908C464.09 69.7908 461.017 68.8031 458.493 66.8277ZM479.07 160H456.518V81.1492H479.07V160ZM588.383 81.1492V146.831C588.383 161.097 585.145 171.468 578.67 177.943C572.195 184.528 562.538 187.82 549.698 187.82C536.419 187.82 524.841 185.406 514.964 180.577L518.586 164.938C529.999 168.45 539.382 170.206 546.735 170.206C553.21 170.206 558.038 168.45 561.221 164.938C564.404 161.427 565.995 155.391 565.995 146.831V145.349C562.373 149.41 558.697 152.318 554.966 154.074C551.234 155.72 546.351 156.543 540.315 156.543C530.767 156.543 523.195 153.415 517.598 147.16C512.001 140.795 509.203 131.412 509.203 119.011C509.203 92.782 519.299 79.6677 539.492 79.6677C548.82 79.6677 557.654 83.2344 565.995 90.3677V81.1492H588.383ZM565.995 128.888V108.805C560.288 101.891 554.088 98.4338 547.393 98.4338C542.016 98.4338 538.01 100.025 535.376 103.208C532.743 106.281 531.426 111.548 531.426 119.011C531.426 132.399 537.077 139.094 548.381 139.094C552.222 139.094 555.405 138.271 557.929 136.625C560.563 134.869 563.251 132.29 565.995 128.888ZM627.839 90.6969C635.082 83.3441 645.014 79.6677 657.634 79.6677C670.255 79.6677 680.186 83.3441 687.43 90.6969C694.673 97.94 698.294 108.036 698.294 120.986C698.294 133.607 694.673 143.538 687.43 150.782C680.186 157.915 670.2 161.482 657.47 161.482C644.959 161.482 635.082 157.915 627.839 150.782C620.596 143.538 616.974 133.607 616.974 120.986C616.974 108.036 620.596 97.94 627.839 90.6969ZM643.806 137.777C646.989 141.508 651.543 143.374 657.47 143.374C663.396 143.374 668.005 141.508 671.297 137.777C674.59 134.046 676.236 128.449 676.236 120.986C676.236 113.304 674.59 107.543 671.297 103.702C668.115 99.7508 663.56 97.7754 657.634 97.7754C651.708 97.7754 647.099 99.7508 643.806 103.702C640.624 107.543 639.033 113.304 639.033 120.986C639.033 128.449 640.624 134.046 643.806 137.777Z" fill="#71029D"/>
<line x1="160.5" y1="35.6665" x2="160.5" y2="214" stroke="#71029D" stroke-width="2.74359"/>
</svg>
