<svg width="350" height="350" viewBox="0 0 350 350" fill="none" xmlns="http://www.w3.org/2000/svg">
<circle cx="175" cy="175" r="175" fill="#71029D"/>
<circle cx="175" cy="175" r="150" fill="white"/>
<path d="M65.4094 181.344L85.5901 164.453C85.6063 175.352 100.73 178.859 91.776 184.315L65.4094 181.344Z" fill="#71029D"/>
<path d="M66.6761 182.334L94.6676 186.491C84.9223 191.254 95.5084 200.216 83.4595 203.805L66.6761 182.334Z" fill="#AF71C8"/>
<path d="M66.229 183.056L83.3622 206.481C73.2117 202.748 74.7101 216.87 63.7101 210.617L66.229 183.056Z" fill="#71029D"/>
<path d="M65.2528 184.413L61.0685 213.536C56.5629 203.354 47.8844 214.317 44.5217 201.744L65.2528 184.413Z" fill="#AF71C8"/>
<path d="M64.2171 185.086L41.3194 201.29C45.3752 189.569 30.9441 189.01 36.8207 180.942L64.2171 185.086Z" fill="#71029D"/>
<path d="M62.0716 184.337L34.912 178.753C45.77 173.524 36.0128 162.436 45.6545 161.122L62.0716 184.337Z" fill="#AF71C8"/>
<path d="M62.4747 183.466L47.1244 159.473C58.3414 163.803 59.0094 148.78 66.7028 154.973L62.4747 183.466Z" fill="#71029D"/>
<path d="M63.7336 181.28L67.9544 152.786C73.4256 163.865 83.6541 153.249 85.3178 163.226L63.7336 181.28Z" fill="#AF71C8"/>
<path d="M112.975 200.714V207.941H114.298V212.985H112.082V209.744H106.012V212.985H103.796V207.941H104.557C104.953 207.335 105.29 206.645 105.565 205.874C105.841 205.091 106.062 204.258 106.227 203.376C106.392 202.494 106.514 201.607 106.591 200.714H112.975ZM108.658 202.566C108.57 203.227 108.46 203.872 108.327 204.501C108.195 205.118 108.03 205.714 107.831 206.287C107.644 206.86 107.412 207.412 107.137 207.941H110.51V202.566H108.658ZM119.558 200.548C120.396 200.548 121.113 200.708 121.708 201.028C122.314 201.348 122.783 201.811 123.114 202.417C123.444 203.024 123.61 203.768 123.61 204.65V205.841H117.788C117.81 206.535 118.014 207.081 118.4 207.478C118.797 207.875 119.343 208.073 120.038 208.073C120.622 208.073 121.151 208.018 121.625 207.908C122.099 207.787 122.59 207.605 123.097 207.362V209.264C122.656 209.485 122.188 209.644 121.691 209.744C121.206 209.854 120.616 209.909 119.922 209.909C119.018 209.909 118.218 209.744 117.524 209.413C116.829 209.071 116.283 208.558 115.886 207.875C115.489 207.191 115.291 206.331 115.291 205.295C115.291 204.236 115.467 203.36 115.82 202.665C116.184 201.96 116.686 201.43 117.325 201.077C117.965 200.725 118.709 200.548 119.558 200.548ZM119.574 202.301C119.1 202.301 118.703 202.456 118.384 202.764C118.075 203.073 117.893 203.553 117.838 204.203H121.294C121.294 203.839 121.228 203.514 121.096 203.227C120.975 202.941 120.787 202.715 120.534 202.549C120.28 202.384 119.96 202.301 119.574 202.301ZM133.083 202.566H130.123V209.744H127.659V202.566H124.698V200.714H133.083V202.566ZM138.259 209.909C137.366 209.909 136.606 209.749 135.977 209.429C135.349 209.099 134.869 208.591 134.538 207.908C134.208 207.224 134.042 206.348 134.042 205.278C134.042 204.176 134.23 203.277 134.604 202.582C134.979 201.888 135.498 201.375 136.159 201.044C136.832 200.714 137.603 200.548 138.474 200.548C139.092 200.548 139.627 200.609 140.079 200.73C140.542 200.851 140.944 200.995 141.286 201.16L140.558 203.062C140.172 202.908 139.809 202.781 139.467 202.682C139.136 202.582 138.805 202.533 138.474 202.533C138.044 202.533 137.686 202.638 137.399 202.847C137.113 203.046 136.898 203.349 136.754 203.757C136.622 204.154 136.556 204.655 136.556 205.262C136.556 205.857 136.628 206.353 136.771 206.75C136.925 207.136 137.146 207.428 137.433 207.627C137.719 207.814 138.067 207.908 138.474 207.908C138.993 207.908 139.45 207.842 139.847 207.709C140.244 207.566 140.63 207.373 141.005 207.131V209.231C140.63 209.474 140.233 209.644 139.814 209.744C139.406 209.854 138.888 209.909 138.259 209.909ZM149.004 200.714H151.716L148.144 205.047L152.031 209.744H149.236L145.548 205.162V209.744H143.083V200.714H145.548V205.096L149.004 200.714ZM155.704 204.286C155.704 204.473 155.693 204.705 155.671 204.981C155.66 205.256 155.644 205.537 155.622 205.824C155.611 206.111 155.594 206.364 155.572 206.585C155.55 206.805 155.534 206.96 155.523 207.048L159.69 200.714H162.651V209.744H160.269V206.138C160.269 205.841 160.28 205.515 160.302 205.162C160.324 204.799 160.346 204.462 160.368 204.154C160.401 203.834 160.423 203.591 160.434 203.426L156.283 209.744H153.323V200.714H155.704V204.286ZM173.876 196.827C173.821 197.4 173.661 197.908 173.396 198.349C173.131 198.779 172.718 199.115 172.156 199.357C171.593 199.6 170.838 199.721 169.89 199.721C168.92 199.721 168.159 199.606 167.608 199.374C167.067 199.131 166.681 198.795 166.45 198.365C166.218 197.935 166.081 197.422 166.036 196.827H168.236C168.291 197.434 168.446 197.836 168.699 198.034C168.953 198.233 169.366 198.332 169.94 198.332C170.414 198.332 170.8 198.227 171.097 198.018C171.406 197.797 171.588 197.4 171.643 196.827H173.876ZM167.608 204.286C167.608 204.473 167.597 204.705 167.575 204.981C167.564 205.256 167.547 205.537 167.525 205.824C167.514 206.111 167.497 206.364 167.475 206.585C167.453 206.805 167.437 206.96 167.426 207.048L171.593 200.714H174.554V209.744H172.172V206.138C172.172 205.841 172.183 205.515 172.205 205.162C172.227 204.799 172.249 204.462 172.271 204.154C172.305 203.834 172.327 203.591 172.338 203.426L168.186 209.744H165.226V200.714H167.608V204.286ZM190.41 212.985H188.194V209.744H180.553V200.714H183.018V207.891H186.623V200.714H189.087V207.941H190.41V212.985ZM195.661 200.548C196.499 200.548 197.215 200.708 197.811 201.028C198.417 201.348 198.886 201.811 199.217 202.417C199.547 203.024 199.713 203.768 199.713 204.65V205.841H193.891C193.913 206.535 194.117 207.081 194.503 207.478C194.9 207.875 195.446 208.073 196.14 208.073C196.725 208.073 197.254 208.018 197.728 207.908C198.202 207.787 198.693 207.605 199.2 207.362V209.264C198.759 209.485 198.29 209.644 197.794 209.744C197.309 209.854 196.719 209.909 196.025 209.909C195.121 209.909 194.321 209.744 193.627 209.413C192.932 209.071 192.386 208.558 191.989 207.875C191.592 207.191 191.394 206.331 191.394 205.295C191.394 204.236 191.57 203.36 191.923 202.665C192.287 201.96 192.789 201.43 193.428 201.077C194.068 200.725 194.812 200.548 195.661 200.548ZM195.677 202.301C195.203 202.301 194.806 202.456 194.487 202.764C194.178 203.073 193.996 203.553 193.941 204.203H197.397C197.397 203.839 197.331 203.514 197.199 203.227C197.078 202.941 196.89 202.715 196.637 202.549C196.383 202.384 196.063 202.301 195.677 202.301ZM204.175 200.714V204.187H207.615V200.714H210.079V209.744H207.615V206.022H204.175V209.744H201.711V200.714H204.175ZM220.137 202.566H217.176V209.744H214.712V202.566H211.752V200.714H220.137V202.566ZM226.83 200.548C227.845 200.548 228.666 200.945 229.294 201.739C229.923 202.522 230.237 203.68 230.237 205.212C230.237 206.237 230.088 207.103 229.791 207.809C229.493 208.503 229.085 209.027 228.567 209.38C228.049 209.733 227.448 209.909 226.764 209.909C226.334 209.909 225.959 209.854 225.639 209.744C225.331 209.633 225.066 209.49 224.846 209.314C224.625 209.137 224.432 208.95 224.267 208.751H224.134C224.179 208.961 224.212 209.181 224.234 209.413C224.256 209.633 224.267 209.854 224.267 210.074V213.713H221.803V200.714H223.804L224.151 201.888H224.267C224.432 201.645 224.631 201.425 224.862 201.226C225.094 201.017 225.369 200.851 225.689 200.73C226.02 200.609 226.4 200.548 226.83 200.548ZM226.036 202.516C225.606 202.516 225.265 202.605 225.011 202.781C224.757 202.957 224.57 203.227 224.449 203.591C224.338 203.944 224.278 204.391 224.267 204.931V205.196C224.267 205.78 224.322 206.276 224.432 206.684C224.542 207.081 224.73 207.384 224.994 207.594C225.259 207.803 225.617 207.908 226.069 207.908C226.444 207.908 226.753 207.803 226.996 207.594C227.238 207.384 227.42 207.075 227.541 206.667C227.663 206.26 227.723 205.763 227.723 205.179C227.723 204.297 227.586 203.635 227.31 203.194C227.045 202.742 226.621 202.516 226.036 202.516Z" fill="#AF71C8"/>
<path d="M106.188 158.557C105.218 157.719 104.733 156.55 104.733 155.051C104.733 153.551 105.218 152.405 106.188 151.611C107.202 150.773 108.437 150.354 109.893 150.354C111.348 150.354 112.561 150.773 113.531 151.611C114.546 152.405 115.053 153.551 115.053 155.051C115.053 156.55 114.546 157.719 113.531 158.557C112.561 159.351 111.348 159.748 109.893 159.748C108.437 159.748 107.202 159.351 106.188 158.557ZM114.457 196H105.394V164.312H114.457V196ZM137.797 164.312V168.612C141.325 165.349 144.92 163.717 148.58 163.717C152.064 163.717 154.622 164.709 156.254 166.694C157.93 168.634 158.768 171.722 158.768 175.955V196H149.705V178.403C149.705 176.022 149.418 174.39 148.845 173.508C148.316 172.582 147.169 172.118 145.405 172.118C142.715 172.118 140.179 173.552 137.797 176.418V196H128.734V164.312H137.797ZM193.281 196V192.229C191.694 193.773 190.216 194.897 188.849 195.603C187.482 196.265 185.629 196.595 183.292 196.595C179.632 196.595 176.566 195.228 174.097 192.494C171.671 189.715 170.458 185.526 170.458 179.925C170.458 174.368 171.517 170.288 173.634 167.686C175.795 165.04 178.794 163.717 182.631 163.717C186.82 163.717 190.371 165.194 193.281 168.149V153.132H202.344V196H193.281ZM193.281 185.085V175.426C191.12 172.648 188.628 171.258 185.806 171.258C181.528 171.258 179.389 174.147 179.389 179.925C179.389 183.1 180.006 185.437 181.241 186.937C182.476 188.436 184.13 189.186 186.203 189.186C188.849 189.186 191.208 187.819 193.281 185.085ZM217.254 158.557C216.284 157.719 215.799 156.55 215.799 155.051C215.799 153.551 216.284 152.405 217.254 151.611C218.269 150.773 219.504 150.354 220.959 150.354C222.414 150.354 223.627 150.773 224.597 151.611C225.612 152.405 226.119 153.551 226.119 155.051C226.119 156.55 225.612 157.719 224.597 158.557C223.627 159.351 222.414 159.748 220.959 159.748C219.504 159.748 218.269 159.351 217.254 158.557ZM225.524 196H216.46V164.312H225.524V196ZM269.453 164.312V190.708C269.453 196.441 268.152 200.609 265.55 203.211C262.948 205.857 259.067 207.18 253.907 207.18C248.57 207.18 243.917 206.21 239.948 204.269L241.404 197.985C245.99 199.396 249.761 200.102 252.716 200.102C255.318 200.102 257.258 199.396 258.537 197.985C259.816 196.573 260.456 194.148 260.456 190.708V190.112C259.001 191.744 257.523 192.913 256.024 193.618C254.524 194.28 252.562 194.611 250.136 194.611C246.299 194.611 243.256 193.354 241.007 190.84C238.757 188.282 237.633 184.511 237.633 179.528C237.633 168.987 241.69 163.717 249.805 163.717C253.554 163.717 257.104 165.15 260.456 168.017V164.312H269.453ZM260.456 183.497V175.426C258.163 172.648 255.671 171.258 252.981 171.258C250.819 171.258 249.21 171.898 248.151 173.177C247.093 174.412 246.564 176.529 246.564 179.528C246.564 184.908 248.835 187.598 253.377 187.598C254.921 187.598 256.2 187.268 257.214 186.606C258.273 185.901 259.353 184.864 260.456 183.497ZM285.309 168.149C288.22 165.194 292.211 163.717 297.283 163.717C302.355 163.717 306.346 165.194 309.257 168.149C312.168 171.06 313.623 175.117 313.623 180.322C313.623 185.393 312.168 189.385 309.257 192.295C306.346 195.162 302.333 196.595 297.217 196.595C292.189 196.595 288.22 195.162 285.309 192.295C282.398 189.385 280.943 185.393 280.943 180.322C280.943 175.117 282.398 171.06 285.309 168.149ZM291.726 187.069C293.005 188.569 294.835 189.318 297.217 189.318C299.598 189.318 301.451 188.569 302.774 187.069C304.097 185.57 304.758 183.321 304.758 180.322C304.758 177.234 304.097 174.919 302.774 173.375C301.495 171.788 299.665 170.994 297.283 170.994C294.901 170.994 293.049 171.788 291.726 173.375C290.447 174.919 289.808 177.234 289.808 180.322C289.808 183.321 290.447 185.57 291.726 187.069Z" fill="#71029D"/>
<line x1="97.5" y1="146.333" x2="97.5" y2="218" stroke="#71029D" stroke-width="1.10256"/>
</svg>
