<svg width="109" height="71" viewBox="0 0 109 71" fill="none" xmlns="http://www.w3.org/2000/svg">
<g id="logo copy">
<path id="Path" d="M43.8104 58.189C43.882 57.8299 43.8174 57.5135 43.6176 57.2188L42.1301 55.018C41.9302 54.724 41.6392 54.563 41.2563 54.5364C40.851 54.465 40.4891 54.528 40.1938 54.7275L37.2848 56.6994L37.3017 53.59C37.3045 53.2757 37.1726 52.9593 36.9055 52.6632C36.6151 52.3454 36.3241 52.1844 35.986 52.1809L33.3239 52.1522C33.2222 52.1508 33.1198 52.1725 33.0182 52.2047C32.7643 52.2572 32.5322 52.4042 32.3007 52.6527C32.03 52.946 31.8947 53.2603 31.8947 53.5753V56.6847L29.0074 54.6813C28.7143 54.4783 28.3531 54.4111 27.9471 54.4783C27.5642 54.5007 27.271 54.6589 27.0676 54.9508L25.5563 57.1355C25.3537 57.4281 25.2856 57.7431 25.3537 58.1036C25.4434 58.4865 25.6244 58.756 25.8719 58.9583L29.0264 61.178L25.8719 63.397C25.6244 63.5993 25.4434 63.8695 25.3537 64.2524C25.2856 64.6129 25.3537 64.9279 25.5563 65.2205L27.0676 67.4052C27.271 67.6971 27.5642 67.8546 27.9471 67.877C28.3531 67.9442 28.7143 67.877 29.0074 67.6747L31.8947 65.6713V68.7807C31.8947 69.0957 32.03 69.41 32.3007 69.7033C32.5322 69.9518 32.7643 70.0981 33.0182 70.1513C33.1198 70.1835 33.2222 70.2052 33.3239 70.2038L35.986 70.1751C36.3241 70.1709 36.6151 70.0106 36.9055 69.6921C37.1726 69.396 37.3045 69.0803 37.3017 68.7653L37.2848 65.6559L40.1938 67.6278C40.4891 67.8273 40.851 67.891 41.2563 67.8196C41.6392 67.793 41.9302 67.632 42.1301 67.3373L43.6176 65.1372C43.8174 64.8418 43.882 64.5261 43.8104 64.167C43.7158 63.7848 43.5327 63.5167 43.2824 63.3172L40.1721 61.178L43.2824 59.0388C43.5327 58.8386 43.7158 58.5712 43.8104 58.189" fill="white"/>
<path id="Path_2" d="M13.4664 10.0181C12.493 9.04937 11.0034 8.56425 8.99984 8.56425H6.13575C5.75424 8.56425 5.47721 8.45575 5.3054 8.23736C5.13358 8.01895 5.04802 7.78585 5.04802 7.53875C5.04802 7.27275 5.13358 7.03056 5.30471 6.81216C5.47653 6.59375 5.75214 6.48456 6.13295 6.48456H10.9298C11.4053 6.48456 11.8289 6.40405 12.1999 6.24306C12.5716 6.08276 12.8808 5.86995 13.1284 5.60606C13.3753 5.34145 13.5604 5.03906 13.6845 4.69816C13.8086 4.35795 13.8704 4.01775 13.8704 3.67756C13.8704 3.33736 13.8086 3.00206 13.6845 2.67097C13.5604 2.34055 13.3753 2.04725 13.1284 1.79176C12.8808 1.53695 12.5758 1.32905 12.2146 1.16806C11.8527 1.00776 11.4333 0.927246 10.9586 0.927246H6.50463C2.29753 0.927246 0.194336 3.06927 0.194336 7.35326C0.194336 9.40075 0.689448 10.9022 1.67899 11.8599C2.66853 12.8175 4.14336 13.2956 6.10418 13.2956H8.95918C9.33998 13.2956 9.6205 13.4096 9.80143 13.6372C9.98236 13.8653 10.0728 14.1125 10.0728 14.3784C10.0728 14.6255 9.98236 14.8587 9.80143 15.0764C9.6205 15.2954 9.33998 15.4039 8.95918 15.4039H3.19238C2.73515 15.4039 2.33119 15.4852 1.97915 15.6462C1.62638 15.8079 1.33185 16.0164 1.09409 16.2733C0.855656 16.5303 0.680331 16.825 0.565317 17.1568C0.451009 17.4892 0.394209 17.8267 0.394209 18.169C0.394209 18.5301 0.451009 18.8767 0.566023 19.2085C0.680331 19.5417 0.851461 19.8357 1.08078 20.0919C1.3101 20.3488 1.59554 20.5581 1.93917 20.7198C2.2821 20.8807 2.68255 20.9613 3.14048 20.9613H8.66182C12.838 20.9613 14.9272 18.834 14.9272 14.578C14.9272 12.5074 14.4398 10.9869 13.4664 10.0181" fill="white"/>
<path id="Path_3" d="M20.8753 21.0754C21.5984 21.0754 22.2358 20.8381 22.7885 20.3628C23.3404 19.8882 23.616 19.2043 23.616 18.3111V9.73264L25.6722 12.4122C26.2613 13.1913 26.9374 13.5805 27.699 13.5805C28.0791 13.5805 28.441 13.4944 28.7839 13.3236C29.1261 13.1528 29.4592 12.849 29.7832 12.4122L31.8107 9.73264L31.8219 45.0994C31.8219 46.6142 33.0646 47.8546 34.5829 47.8546C36.1019 47.8546 37.3446 46.6142 37.3446 45.0994L37.3488 3.74833C37.3488 3.29263 37.2682 2.87892 37.1069 2.50863C36.9449 2.13834 36.7261 1.82963 36.4498 1.58253C36.1742 1.33543 35.86 1.14574 35.5079 1.01274C35.1552 0.879733 34.7891 0.813232 34.409 0.813232C33.9139 0.813232 33.4237 0.931537 32.9377 1.16953C32.4531 1.40683 32.0288 1.75332 31.6676 2.20973L27.699 7.25392L23.7591 2.20973C23.3972 1.75332 22.9687 1.40683 22.4743 1.16953C21.9792 0.931537 21.4841 0.813232 20.9897 0.813232C20.6088 0.813232 20.2421 0.879733 19.8907 1.01274C19.538 1.14574 19.2287 1.33543 18.9622 1.58253C18.6957 1.82963 18.4818 2.13834 18.3198 2.50863C18.1578 2.87892 18.0771 3.29263 18.0771 3.74833V18.3111C18.0771 19.2232 18.3528 19.912 18.9054 20.3768C19.4573 20.843 20.1137 21.0754 20.8753 21.0754" fill="white"/>
<path id="Shape" fill-rule="evenodd" clip-rule="evenodd" d="M50.6062 1.26869C50.9772 1.57319 51.2675 1.98198 51.4765 2.49437L57.6725 17.3421C57.8057 17.6844 57.8723 18.0547 57.8723 18.4537C57.8723 18.8338 57.7868 19.1852 57.6157 19.5079C57.4445 19.8313 57.2201 20.1064 56.9445 20.3346C56.6682 20.5628 56.3491 20.7427 55.9879 20.8764C55.6261 21.0087 55.2649 21.0752 54.903 21.0752C54.3315 21.0752 53.8322 20.9282 53.4044 20.6335C52.9759 20.3395 52.6568 19.8887 52.4478 19.2804L51.6483 17.0859H45.7097L44.8247 19.2804C44.5582 19.8887 44.2054 20.3395 43.7685 20.6335C43.3302 20.9282 42.8729 21.0752 42.3975 21.0752C42.0167 21.0752 41.6506 21.0136 41.2985 20.8897C40.9458 20.7665 40.6274 20.5908 40.342 20.3626C40.0565 20.1351 39.8279 19.86 39.6561 19.5366C39.4857 19.2139 39.3994 18.8527 39.3994 18.4537C39.3994 17.9973 39.466 17.627 39.6 17.3421L46.3949 2.46639C46.6235 1.97217 46.918 1.57319 47.2799 1.26869C47.6411 0.965579 48.2035 0.812988 48.9644 0.812988C49.6875 0.812988 50.2352 0.965579 50.6062 1.26869ZM48.9076 9.10588L47.451 12.7256H50.1349L48.9076 9.10588Z" fill="white"/>
<path id="Path_4" d="M74.4085 10.474C75.0656 9.52408 75.3938 8.36489 75.3938 6.99709C75.3938 6.23759 75.2606 5.49209 74.9941 4.75988C74.7276 4.02909 74.318 3.37808 73.7668 2.80828C73.2142 2.23778 72.5101 1.77789 71.6538 1.42578C70.7975 1.07509 69.7785 0.898682 68.5989 0.898682H62.6028C60.8131 0.898682 59.9189 1.82967 59.9189 3.69167V18.1684C59.9189 20.0311 60.8468 20.9614 62.7024 20.9614C64.5391 20.9614 65.4578 20.0115 65.4578 18.1117V6.19908H68.4734C69.0667 6.19908 69.5078 6.30409 69.7953 6.51267C70.0822 6.72269 70.2259 7.08249 70.2259 7.59557C70.2259 8.16607 70.0836 8.58398 69.7974 8.84999C69.5127 9.11599 69.1312 9.24829 68.6557 9.24829H68.256C67.5897 9.24829 67.0659 9.46249 66.6858 9.88948C66.305 10.3172 66.1149 10.8919 66.1149 11.6143C66.0953 11.9944 66.1331 12.3458 66.2292 12.6685C66.3239 12.9919 66.4186 13.2292 66.514 13.3811L69.8837 19.6503C70.1495 20.1452 70.4973 20.5057 70.9251 20.7332C71.3536 20.9614 71.7863 21.0755 72.2246 21.0755C72.5865 21.0755 72.9477 21.009 73.3095 20.876C73.6707 20.743 73.9947 20.5582 74.2801 20.3202C74.5656 20.0829 74.7942 19.7931 74.9653 19.4515C75.1371 19.1092 75.2227 18.7389 75.2227 18.3399C75.2227 17.8457 75.041 17.2759 74.6799 16.6298L72.0248 12.469C72.9575 12.0889 73.7521 11.4246 74.4085 10.474" fill="white"/>
<path id="Path_5" d="M88.4776 0.927246H79.1132C78.2372 0.927246 77.557 1.20096 77.0717 1.74976C76.5864 2.29785 76.3438 2.94955 76.3438 3.70556C76.3438 4.46155 76.5864 5.11396 77.0717 5.66205C77.557 6.21017 78.2372 6.48456 79.1132 6.48456H81.0544V18.3111C81.0544 19.2232 81.3258 19.9119 81.8679 20.3775C82.4107 20.843 83.0531 21.0754 83.7957 21.0754C84.5567 21.0754 85.2131 20.843 85.7657 20.3775C86.3169 19.9119 86.5932 19.2232 86.5932 18.3111V6.48456H88.4776C89.3535 6.48456 90.0387 6.21017 90.5338 5.66205C91.0282 5.11396 91.2758 4.46155 91.2758 3.70556C91.2758 2.94955 91.0282 2.29785 90.5338 1.74976C90.0387 1.20096 89.3535 0.927246 88.4776 0.927246" fill="white"/>
<path id="Path_6" d="M107.507 2.45191C107.345 2.12011 107.131 1.83452 106.865 1.59723C106.599 1.35923 106.294 1.16953 105.951 1.02673C105.609 0.884625 105.256 0.813232 104.895 0.813232C104.457 0.813232 104.024 0.927329 103.596 1.15482C103.168 1.38303 102.811 1.74422 102.525 2.23842L100.041 6.54132L97.5574 2.20973C97.272 1.71622 96.9101 1.35923 96.4725 1.14082C96.0342 0.922415 95.6155 0.813232 95.2158 0.813232C94.835 0.813232 94.4738 0.884625 94.1309 1.02673C93.7886 1.16953 93.4836 1.36902 93.2178 1.62592C92.9506 1.88212 92.7367 2.18102 92.5754 2.52333C92.4134 2.86493 92.332 3.22613 92.332 3.60623C92.332 4.06193 92.4849 4.52812 92.7893 5.00272L97.3007 12.2694V18.3111C97.3007 19.2232 97.5714 19.912 98.1135 20.3775C98.6563 20.843 99.3085 21.0754 100.069 21.0754C100.812 21.0754 101.459 20.843 102.011 20.3775C102.563 19.912 102.84 19.2232 102.84 18.3111V12.2694L107.294 5.03073C107.597 4.53722 107.75 4.03322 107.75 3.52082C107.75 3.14072 107.669 2.78442 107.507 2.45191" fill="white"/>
<path id="Path_7" d="M28.2557 46.9095C28.7887 46.4062 29.0552 45.7265 29.0552 44.8718C29.0552 44.2642 28.8364 43.6846 28.3988 43.1337L23.7162 37.1494L28.3701 31.905C28.5987 31.6775 28.76 31.4115 28.8553 31.107C28.9507 30.8039 28.9977 30.4903 28.9977 30.1669C28.9977 29.3689 28.7459 28.7095 28.2417 28.1859C27.7375 27.6644 27.0285 27.4026 26.1147 27.4026C25.6196 27.4026 25.2058 27.4789 24.8727 27.6308C24.5396 27.7827 24.2394 28.0585 23.9729 28.4568L19.4334 34.8695V30.1382C19.4334 29.2646 19.1571 28.5898 18.6059 28.1145C18.0532 27.6406 17.4067 27.4026 16.664 27.4026C15.9024 27.4026 15.2509 27.6406 14.708 28.1145C14.166 28.5898 13.8945 29.2646 13.8945 30.1382V44.9005C13.8945 45.8126 14.166 46.5014 14.708 46.9662C15.2509 47.4324 15.9024 47.6648 16.664 47.6648C17.4067 47.6648 18.0532 47.4324 18.6059 46.9662C19.1571 46.5014 19.4334 45.8126 19.4334 44.9005V40.1699L24.0304 46.5819C24.2962 46.962 24.6153 47.2371 24.987 47.4086C25.358 47.5794 25.7528 47.6648 26.1715 47.6648C27.0285 47.6648 27.7228 47.4128 28.2557 46.9095" fill="white"/>
<path id="Shape_2" fill-rule="evenodd" clip-rule="evenodd" d="M50.5499 28.378C51.8536 28.9667 52.9385 29.7367 53.8046 30.6866C54.6707 31.6365 55.3222 32.7236 55.7605 33.9493C56.1981 35.175 56.4176 36.4147 56.4176 37.6684C56.4176 38.9221 56.2072 40.1387 55.7892 41.3161C55.3699 42.4942 54.7422 43.5484 53.9049 44.4794C53.0668 45.4104 52.0296 46.1566 50.7925 46.7166C49.5554 47.2773 48.1086 47.5573 46.4529 47.5573H43.3125C42.4365 47.5573 41.7373 47.3109 41.2142 46.816C40.6896 46.3225 40.4287 45.6386 40.4287 44.7643V30.2876C40.4287 29.9271 40.5143 29.575 40.6861 29.2327C40.8565 28.8911 41.0802 28.5915 41.3565 28.3353C41.6321 28.0784 41.9421 27.8747 42.2843 27.7221C42.6273 27.5709 42.9695 27.4946 43.3125 27.4946H45.9956C47.7278 27.4946 49.2461 27.7893 50.5499 28.378ZM49.8072 40.5608C50.1789 40.1331 50.4594 39.6396 50.6501 39.0789C50.8402 38.5189 50.9356 37.9533 50.9356 37.3835C50.9356 36.8515 50.8444 36.3342 50.6642 35.8302C50.4825 35.3276 50.2118 34.8754 49.8507 34.4764C49.4888 34.0774 49.0224 33.7547 48.4516 33.5076C47.8807 33.2612 47.2138 33.1373 46.4529 33.1373H45.9676V42H46.4816C47.2046 42 47.8471 41.8677 48.4088 41.601C48.9698 41.335 49.4362 40.9885 49.8072 40.5608Z" fill="white"/>
<path id="Path_8" d="M66.6991 35.0396H63.8349C63.4534 35.0396 63.1764 34.9304 63.0046 34.712C62.8328 34.4936 62.7472 34.2612 62.7472 34.0141C62.7472 33.7481 62.8328 33.5059 63.0039 33.2875C63.1757 33.0691 63.4513 32.9599 63.8321 32.9599H68.629C69.1045 32.9599 69.5281 32.8794 69.8991 32.7184C70.2708 32.5581 70.58 32.3453 70.8276 32.0807C71.0745 31.8168 71.2596 31.5137 71.3837 31.1735C71.5072 30.8333 71.5696 30.4931 71.5696 30.1522C71.5696 29.812 71.5072 29.4767 71.3837 29.1456C71.2596 28.8159 71.0745 28.5226 70.8276 28.2671C70.58 28.0123 70.275 27.8037 69.9138 27.6427C69.5519 27.4831 69.1325 27.4026 68.6578 27.4026H64.2038C59.9967 27.4026 57.8936 29.5446 57.8936 33.8279C57.8936 35.8754 58.3887 37.3776 59.3782 38.3352C60.3677 39.2928 61.8426 39.7702 63.8034 39.7702H66.6584C67.0392 39.7702 67.3197 39.8843 67.5006 40.1125C67.6816 40.3407 67.772 40.5878 67.772 40.8531C67.772 41.1002 67.6816 41.3333 67.5006 41.5517C67.3197 41.7701 67.0392 41.8793 66.6584 41.8793H60.8916C60.4351 41.8793 60.0304 41.9605 59.6783 42.1215C59.3256 42.2832 59.031 42.4918 58.7933 42.7487C58.5549 43.0049 58.3788 43.3003 58.2652 43.6321C58.1509 43.9646 58.0934 44.3013 58.0934 44.6436C58.0934 45.0048 58.1509 45.352 58.2652 45.6838C58.3788 46.017 58.5514 46.311 58.78 46.5672C59.0093 46.8241 59.2947 47.0334 59.6384 47.1944C59.9813 47.3561 60.3817 47.4366 60.8397 47.4366H66.361C70.5373 47.4366 72.6264 45.3093 72.6264 41.0533C72.6264 38.982 72.139 37.4623 71.1656 36.4935C70.1915 35.524 68.7027 35.0396 66.6991 35.0396" fill="white"/>
</g>
</svg>
